<mxfile host="app.diagrams.net" modified="2024-06-20T23:27:44.132Z" agent="Mozilla/5.0 (Windows NT 10.0; Win64; x64) AppleWebKit/537.36 (KHTML, like Gecko) Chrome/126.0.0.0 Safari/537.36" etag="ztFWVpDOmn-o6GDGUlow" version="24.4.10" type="device">
  <diagram name="第 1 页" id="GQLU6RjPd1u5BG9v055X">
    <mxGraphModel dx="1436" dy="727" grid="1" gridSize="10" guides="1" tooltips="1" connect="1" arrows="1" fold="1" page="1" pageScale="1" pageWidth="827" pageHeight="1169" math="0" shadow="0">
      <root>
        <mxCell id="0" />
        <mxCell id="1" parent="0" />
        <mxCell id="gSUf4Yfc2NyKeM3-cdcr-1" value="小美" style="shape=umlActor;verticalLabelPosition=bottom;verticalAlign=top;html=1;outlineConnect=0;" vertex="1" parent="1">
          <mxGeometry x="70" y="140" width="30" height="60" as="geometry" />
        </mxCell>
        <mxCell id="gSUf4Yfc2NyKeM3-cdcr-2" value="小明" style="shape=umlActor;verticalLabelPosition=bottom;verticalAlign=top;html=1;outlineConnect=0;" vertex="1" parent="1">
          <mxGeometry x="700" y="140" width="30" height="60" as="geometry" />
        </mxCell>
        <mxCell id="gSUf4Yfc2NyKeM3-cdcr-3" value="小帅" style="shape=umlActor;verticalLabelPosition=bottom;verticalAlign=top;html=1;outlineConnect=0;" vertex="1" parent="1">
          <mxGeometry x="700" y="370" width="30" height="60" as="geometry" />
        </mxCell>
        <mxCell id="gSUf4Yfc2NyKeM3-cdcr-5" value="服务器A" style="rounded=0;whiteSpace=wrap;html=1;" vertex="1" parent="1">
          <mxGeometry x="560" y="150" width="120" height="60" as="geometry" />
        </mxCell>
        <mxCell id="gSUf4Yfc2NyKeM3-cdcr-6" value="服务器C" style="rounded=0;whiteSpace=wrap;html=1;" vertex="1" parent="1">
          <mxGeometry x="560" y="370" width="120" height="60" as="geometry" />
        </mxCell>
        <mxCell id="gSUf4Yfc2NyKeM3-cdcr-9" value="群组G100 消息存储队列" style="shape=process;whiteSpace=wrap;html=1;backgroundOutline=1;rotation=90;" vertex="1" parent="1">
          <mxGeometry x="140" y="330" width="450" height="60" as="geometry" />
        </mxCell>
        <mxCell id="gSUf4Yfc2NyKeM3-cdcr-10" value="服务器B" style="rounded=0;whiteSpace=wrap;html=1;" vertex="1" parent="1">
          <mxGeometry x="25" y="290" width="120" height="60" as="geometry" />
        </mxCell>
        <mxCell id="gSUf4Yfc2NyKeM3-cdcr-11" value="" style="endArrow=classic;html=1;rounded=0;exitX=1;exitY=0.5;exitDx=0;exitDy=0;" edge="1" parent="1" source="gSUf4Yfc2NyKeM3-cdcr-10">
          <mxGeometry width="50" height="50" relative="1" as="geometry">
            <mxPoint x="180" y="350" as="sourcePoint" />
            <mxPoint x="330" y="230" as="targetPoint" />
            <Array as="points">
              <mxPoint x="210" y="320" />
              <mxPoint x="210" y="230" />
            </Array>
          </mxGeometry>
        </mxCell>
        <mxCell id="gSUf4Yfc2NyKeM3-cdcr-12" value="1.登录后首次同步点：1000200" style="text;strokeColor=none;align=center;fillColor=none;html=1;verticalAlign=middle;whiteSpace=wrap;rounded=0;" vertex="1" parent="1">
          <mxGeometry x="160" y="200" width="170" height="30" as="geometry" />
        </mxCell>
        <mxCell id="gSUf4Yfc2NyKeM3-cdcr-13" value="" style="endArrow=classic;html=1;rounded=0;entryX=0.268;entryY=-0.061;entryDx=0;entryDy=0;entryPerimeter=0;exitX=0;exitY=0.5;exitDx=0;exitDy=0;" edge="1" parent="1" source="gSUf4Yfc2NyKeM3-cdcr-5" target="gSUf4Yfc2NyKeM3-cdcr-9">
          <mxGeometry width="50" height="50" relative="1" as="geometry">
            <mxPoint x="520" y="300" as="sourcePoint" />
            <mxPoint x="570" y="250" as="targetPoint" />
            <Array as="points">
              <mxPoint x="480" y="180" />
              <mxPoint x="480" y="256" />
            </Array>
          </mxGeometry>
        </mxCell>
        <mxCell id="gSUf4Yfc2NyKeM3-cdcr-14" value="2.消息带上路由发现时间戳：1000500" style="text;strokeColor=none;align=center;fillColor=none;html=1;verticalAlign=middle;whiteSpace=wrap;rounded=0;" vertex="1" parent="1">
          <mxGeometry x="490" y="240" width="170" height="30" as="geometry" />
        </mxCell>
        <mxCell id="gSUf4Yfc2NyKeM3-cdcr-15" value="" style="endArrow=classic;html=1;rounded=0;exitX=1;exitY=0.5;exitDx=0;exitDy=0;" edge="1" parent="1">
          <mxGeometry width="50" height="50" relative="1" as="geometry">
            <mxPoint x="146" y="343" as="sourcePoint" />
            <mxPoint x="331" y="253" as="targetPoint" />
            <Array as="points">
              <mxPoint x="236" y="343" />
              <mxPoint x="236" y="253" />
            </Array>
          </mxGeometry>
        </mxCell>
        <mxCell id="gSUf4Yfc2NyKeM3-cdcr-16" value="3.需要再次同步数据：&lt;div&gt;标记点&lt;span style=&quot;background-color: initial;&quot;&gt;1000500&lt;/span&gt;&lt;/div&gt;" style="text;strokeColor=none;align=center;fillColor=none;html=1;verticalAlign=middle;whiteSpace=wrap;rounded=0;" vertex="1" parent="1">
          <mxGeometry x="200" y="270" width="170" height="30" as="geometry" />
        </mxCell>
        <mxCell id="gSUf4Yfc2NyKeM3-cdcr-17" value="" style="endArrow=classic;html=1;rounded=0;exitX=0;exitY=0.5;exitDx=0;exitDy=0;" edge="1" parent="1">
          <mxGeometry width="50" height="50" relative="1" as="geometry">
            <mxPoint x="560" y="400" as="sourcePoint" />
            <mxPoint x="399" y="240" as="targetPoint" />
            <Array as="points">
              <mxPoint x="500" y="400" />
              <mxPoint x="500" y="240" />
            </Array>
          </mxGeometry>
        </mxCell>
        <mxCell id="gSUf4Yfc2NyKeM3-cdcr-18" value="4.消息带上路由发现时间戳：1000400" style="text;strokeColor=none;align=center;fillColor=none;html=1;verticalAlign=middle;whiteSpace=wrap;rounded=0;" vertex="1" parent="1">
          <mxGeometry x="490" y="320" width="170" height="30" as="geometry" />
        </mxCell>
      </root>
    </mxGraphModel>
  </diagram>
</mxfile>
